HIERARCHY
ROOT Hips
{
	OFFSET 0.000000 0.000000 0.000000 
	CHANNELS 6 Xposition Yposition Zposition Zrotation Yrotation Xrotation
	JOINT LeftUpLeg
	{
		OFFSET 1.363060 -1.794630 0.839290 
		CHANNELS 3 Zrotation Yrotation Xrotation
		JOINT LeftLeg
		{
			OFFSET 2.448110 -6.726130 0.000000 
			CHANNELS 3 Zrotation Yrotation Xrotation
			JOINT LeftFoot
			{
				OFFSET 2.562200 -7.039590 0.000000 
				CHANNELS 3 Zrotation Yrotation Xrotation
				JOINT LeftToeBase
				{
					OFFSET 0.157640 -0.433110 2.322550 
					CHANNELS 3 Zrotation Yrotation Xrotation
					End Site
					{
						OFFSET 0.000000 0.000000 0.000000 
					}
				}
			}
		}
	}
	JOINT RightUpLeg
	{
		OFFSET -1.305520 -1.794630 0.839290 
		CHANNELS 3 Zrotation Yrotation Xrotation
		JOINT RightLeg
		{
			OFFSET -2.542530 -6.985550 0.000000 
			CHANNELS 3 Zrotation Yrotation Xrotation
			JOINT RightFoot
			{
				OFFSET -2.568260 -7.056230 0.000000 
				CHANNELS 3 Zrotation Yrotation Xrotation
				JOINT RightToeBase
				{
					OFFSET -0.164730 -0.452590 2.363150 
					CHANNELS 3 Zrotation Yrotation Xrotation
					End Site
					{
						OFFSET 0.000000 0.000000 0.000000 
					}
				}
			}
		}
	}
	JOINT Spine
	{
		OFFSET 0.028270 2.035590 -0.193380 
		CHANNELS 3 Zrotation Yrotation Xrotation
		JOINT Spine1
		{
			OFFSET 0.056720 2.048850 -0.042750 
			CHANNELS 3 Zrotation Yrotation Xrotation
			JOINT Neck1
			{
				OFFSET -0.054170 1.746240 0.172020 
				CHANNELS 3 Zrotation Yrotation Xrotation
				JOINT Head
				{
					OFFSET 0.104070 1.761360 -0.123970 
					CHANNELS 3 Zrotation Yrotation Xrotation
					End Site
					{
						OFFSET 0.000000 0.000000 0.000000 
					}
				}
			}
			JOINT LeftArm
			{
				OFFSET 3.362410 1.200890 -0.311210 
				CHANNELS 3 Zrotation Yrotation Xrotation
				JOINT LeftForeArm
				{
					OFFSET 4.983000 -0.000000 -0.000000 
					CHANNELS 3 Zrotation Yrotation Xrotation
					JOINT LeftHand
					{
						OFFSET 3.483560 -0.000000 -0.000000 
						CHANNELS 3 Zrotation Yrotation Xrotation
						JOINT LeftHandIndex1
						{
							OFFSET 0.715260 -0.000000 -0.000000 
							CHANNELS 3 Zrotation Yrotation Xrotation
							End Site
							{
								OFFSET 0.000000 0.000000 0.000000 
							}
						}
					}
				}
			}
			JOINT RightArm
			{
				OFFSET -3.136600 1.374050 -0.404650 
				CHANNELS 3 Zrotation Yrotation Xrotation
				JOINT RightForeArm
				{
					OFFSET -5.241900 -0.000000 -0.000000 
					CHANNELS 3 Zrotation Yrotation Xrotation
					JOINT RightHand
					{
						OFFSET -3.444170 -0.000000 -0.000000 
						CHANNELS 3 Zrotation Yrotation Xrotation
						JOINT RightHandIndex1
						{
							OFFSET -0.622530 -0.000000 -0.000000 
							CHANNELS 3 Zrotation Yrotation Xrotation
							End Site
							{
								OFFSET 0.000000 0.000000 0.000000 
							}
						}
					}
				}
			}
		}
	}
}
MOTION
Frames: 7
Frame Time: 0.041667
9.790920 17.854682 34.521437 -178.869067 -0.160920 -160.975948 -24.816179 -15.054502 -10.269578 -1.243701 3.529959 9.399711 0.657876 -2.567704 -16.577870 4.828900 -13.188500 -40.078100 32.982097 13.711515 -8.891092 1.147545 -3.341467 9.710924 -2.173108 2.978946 -26.389316 -0.846200 5.867100 -16.399300 1.354398 0.009171 -4.596413 -0.613554 -0.562327 13.731291 12.915861 -3.236171 -2.672899 3.095400 -2.228900 -3.970500 -104.815714 -9.684211 16.150013 14.909491 -18.086920 -2.967281 -1.900626 0.318627 -6.972232 -7.125000 0.000000 0.000000 98.465146 1.414327 12.888395 -13.597702 24.127088 -3.913792 0.840139 4.121784 1.946581 7.125000 0.000000 0.000000 
9.792017 17.850295 34.525605 -178.958408 -0.224764 -160.793116 -24.821742 -15.227856 -10.545464 -1.239986 3.584218 9.466372 0.643636 -2.658789 -16.570107 4.601700 -12.920700 -39.072400 32.767834 13.390412 -9.055837 1.156969 -3.185056 9.287091 -2.152029 3.344577 -26.176195 -0.744800 5.512600 -15.376600 1.351407 0.011830 -4.655569 -0.575893 -0.565373 13.589626 12.997470 -3.298416 -2.575897 3.125300 -2.251100 -3.932400 -104.823992 -9.380307 15.992700 14.642780 -17.696382 -2.847792 -1.880358 0.352317 -6.440839 -7.125000 0.000000 0.000000 98.420956 1.138726 12.611242 -13.411902 23.876526 -3.824074 0.838050 4.129366 1.828142 7.125000 0.000000 0.000000 
9.789055 17.847333 34.530979 -179.164003 -0.291753 -160.546897 -25.034017 -15.387170 -10.843157 -1.239289 3.648980 9.547036 0.642407 -2.636670 -16.578336 4.877000 -13.243900 -40.288400 32.440185 13.808440 -9.622396 1.136959 -3.465113 9.872449 -2.189268 3.150646 -26.554435 -0.736000 5.480700 -15.284900 1.342424 -0.043894 -4.713236 -0.575831 -0.604424 13.497904 13.046420 -3.317521 -2.531166 3.148100 -2.256000 -3.914500 -104.799662 -9.131595 15.631212 14.324914 -17.232249 -2.708225 -1.851015 0.425792 -5.747179 -7.125000 0.000000 0.000000 98.392050 0.887696 12.276586 -13.271002 23.683047 -3.753164 0.828681 4.118987 1.804201 7.125000 0.000000 0.000000 
9.788507 17.840313 34.528895 -179.055268 -0.260491 -160.462499 -24.862998 -15.447351 -10.940212 -1.246939 3.650046 9.529791 0.654205 -2.497569 -16.560598 5.131400 -13.530200 -41.387300 32.540869 13.503686 -9.520752 1.158945 -3.234613 9.296811 -2.132593 3.363352 -26.134950 -0.739300 5.492700 -15.319400 1.349935 -0.055610 -4.735703 -0.665652 -0.602149 13.488673 13.114092 -3.349066 -2.384205 3.160900 -2.263000 -3.845700 -104.713496 -9.011503 15.007297 14.035234 -16.805708 -2.577942 -1.824737 0.487513 -5.357074 -7.125000 0.000000 0.000000 98.454196 0.662222 11.911153 -13.205672 23.602130 -3.720091 0.826043 4.106037 1.896136 7.125000 0.000000 0.000000 
9.789275 17.834829 34.536245 -178.997608 -0.287336 -160.187730 -24.660783 -15.585622 -11.320512 -1.245110 3.713751 9.613515 0.641417 -2.519970 -16.496047 4.913500 -13.285700 -40.447700 32.537581 14.067811 -10.006312 1.156642 -3.457339 9.709084 -2.116463 3.014334 -26.242310 -0.768500 5.597900 -15.622200 1.344095 -0.088458 -4.796285 -0.725283 -0.621129 13.354956 13.232569 -3.313225 -2.098549 3.215300 -2.218200 -3.725600 -104.560002 -8.871502 14.453497 13.870995 -16.561715 -2.496811 -1.868657 0.521323 -5.799511 -7.125000 0.000000 0.000000 98.527724 0.441325 11.464119 -13.072157 23.427425 -3.657075 0.834615 4.092546 2.076099 7.125000 0.000000 0.000000 
9.795198 17.832196 34.551272 -178.880351 -0.354217 -159.940233 -24.383462 -15.580442 -11.838477 -1.232949 3.811968 9.783294 0.609647 -2.677934 -16.389795 4.716200 -13.056900 -39.581800 32.790053 14.576111 -10.395727 1.152071 -3.636863 10.036374 -1.331850 0.474295 -21.504866 -3.002500 10.699200 -31.271900 1.353255 -0.142175 -4.876556 -0.694224 -0.649234 13.091056 13.338670 -3.242196 -1.910838 3.275200 -2.162700 -3.669400 -104.390167 -8.592329 14.264728 13.674945 -16.272788 -2.413179 -1.871918 0.550973 -6.220431 -7.125000 0.000000 0.000000 98.511944 0.171083 11.111746 -12.903057 23.191974 -3.575774 0.832201 4.076341 2.096964 7.125000 0.000000 0.000000 
9.800682 17.832964 34.560266 -178.774130 -0.444448 -159.968671 -24.170338 -15.519688 -11.957631 -1.223212 3.853653 9.887519 0.593773 -2.788177 -16.351608 4.688200 -13.023800 -39.457700 32.948113 14.739705 -10.387386 1.155397 -3.674194 10.111643 -1.354106 0.437491 -21.706249 -2.871100 10.483300 -30.556600 1.361115 -0.158285 -4.874196 -0.707017 -0.649337 13.061713 13.429306 -3.270968 -1.960634 3.310100 -2.185900 -3.699700 -104.226365 -8.520629 13.834145 13.418229 -15.889789 -2.302666 -1.866789 0.601865 -6.158172 -7.125000 0.000000 0.000000 98.529705 0.088680 10.661218 -12.732113 22.949573 -3.494249 0.831288 4.064343 2.151902 7.125000 0.000000 0.000000 
